HIERARCHY
ROOT hip
{
	OFFSET 0.000000 0.000000 0.000000 
	CHANNELS 6 Xposition Yposition Zposition Xrotation Zrotation Yrotation
	JOINT abdomen
	{
		OFFSET 0.000000 3.402643 0.000000 
		CHANNELS 3 Xrotation Zrotation Yrotation
		JOINT chest
		{
			OFFSET 0.000000 8.438565 -0.680529 
			CHANNELS 3 Xrotation Zrotation Yrotation
			JOINT neck
			{
				OFFSET 0.000000 10.207942 -0.272212 
				CHANNELS 3 Xrotation Zrotation Yrotation
				JOINT head
				{
					OFFSET 0.000000 3.130431 0.000000 
					CHANNELS 3 Xrotation Zrotation Yrotation
					End Site
					{
						OFFSET 0.000000 3.130435 0.000000 
					}
				}
			}
			JOINT lCollar
			{
				OFFSET 3.470700 6.669187 -0.816635 
				CHANNELS 3 Yrotation Zrotation Xrotation
				JOINT lShldr
				{
					OFFSET 3.198488 0.000000 0.000000 
					CHANNELS 3 Zrotation Yrotation Xrotation
					JOINT lForeArm
					{
						OFFSET 10.139888 0.000000 0.000000 
						CHANNELS 3 Yrotation Zrotation Xrotation
						JOINT lHand
						{
							OFFSET 8.370511 0.000000 0.000000 
							CHANNELS 3 Zrotation Yrotation Xrotation
							End Site
							{
								OFFSET 4.083176 0.000000 0.000000 
							}
						}
					}
				}
			}
			JOINT rCollar
			{
				OFFSET -3.470700 6.669187 -0.816635 
				CHANNELS 3 Yrotation Zrotation Xrotation
				JOINT rShldr
				{
					OFFSET -3.198488 0.000000 0.000000 
					CHANNELS 3 Zrotation Yrotation Xrotation
					JOINT rForeArm
					{
						OFFSET -10.139888 0.000000 0.000000 
						CHANNELS 3 Yrotation Zrotation Xrotation
						JOINT rHand
						{
							OFFSET -8.370511 0.000000 0.000000 
							CHANNELS 3 Zrotation Yrotation Xrotation
							End Site
							{
								OFFSET -4.083176 0.000000 0.000000 
							}
						}
					}
				}
			}
		}
	}
	JOINT lThigh
	{
		OFFSET 5.308129 -1.633274 1.361059 
		CHANNELS 3 Xrotation Zrotation Yrotation
		JOINT lShin
		{
			OFFSET -2.041588 -20.007561 0.000000 
			CHANNELS 3 Xrotation Zrotation Yrotation
			JOINT lFoot
			{
				OFFSET 0.000000 -19.190928 -1.224953 
				CHANNELS 3 Xrotation Yrotation Zrotation
				End Site
				{
					OFFSET 0.000000 -2.449906 4.627600 
				}
			}
		}
	}
	JOINT rThigh
	{
		OFFSET -5.308129 -1.633274 1.361059 
		CHANNELS 3 Xrotation Zrotation Yrotation
		JOINT rShin
		{
			OFFSET 2.041588 -20.007561 0.000000 
			CHANNELS 3 Xrotation Zrotation Yrotation
			JOINT rFoot
			{
				OFFSET 0.000000 -19.190928 -1.224953 
				CHANNELS 3 Xrotation Yrotation Zrotation
				End Site
				{
					OFFSET 0.000000 -2.449906 4.627600 
				}
			}
		}
	}
}
MOTION
Frames: 10
Frame Time: 0.033333
-2.609548 49.417660 1.503712 -0.042838 0.615223 -0.351542 0.000000 0.000000 0.000000 0.287716 2.939450 0.088276 -12.082540 1.103448 -0.634836 8.902412 5.258726 -2.490608 -1.443707 10.127089 0.821729 -8.231260 0.291374 -9.028542 -0.080737 -4.188241 14.597675 1.683519 -5.074619 -3.496628 3.238545 -6.300354 0.853885 0.885437 -7.153701 2.389766 0.110925 4.866859 5.497590 -0.800281 5.205774 -3.446573 7.546802 10.915866 8.210690 -1.777608 -1.500887 -4.738804 -4.351991 0.358095 -10.569266 5.143882 -7.886939 -6.729386 1.307841 1.245603 -15.207172 -3.650004 -0.249754 7.073666 
-2.876268 49.461361 1.408300 0.117216 0.732357 -0.761657 0.000000 0.000000 0.000000 0.148942 2.880858 0.049257 -12.337514 1.035150 -0.195281 9.326653 5.299164 -2.107768 -0.889491 9.703804 0.931081 -8.307390 2.194115 -9.403009 -0.071884 -3.874058 12.948500 1.423770 -5.325136 -3.477822 3.182506 -6.566268 1.011176 1.475922 -8.646239 1.747253 0.125387 4.767161 2.724093 -0.081940 5.170235 -3.391660 7.264487 10.916866 8.103374 -1.774275 -1.341836 -3.884656 -3.665900 0.321785 -10.889618 4.832531 -7.811670 -6.730554 1.190640 1.533045 -14.793748 -3.592491 -0.203869 6.277878 
-3.215292 49.540497 1.330288 0.160927 0.898315 -0.947302 0.000000 0.000000 0.000000 -0.161938 2.656247 0.088249 -12.070496 1.074219 -0.009764 9.361355 5.387639 -1.912386 -0.778182 9.747502 0.672611 -8.836315 3.768065 -9.070615 -0.075582 -3.763648 11.596864 1.015508 -5.545238 -3.451741 2.895524 -6.934793 0.767002 2.395285 -9.839521 1.872204 0.109789 4.768764 1.145925 0.255509 5.444396 -3.358242 7.087410 11.052876 8.116404 -1.735144 -1.254164 -3.742994 -2.705287 0.231351 -11.262499 4.794157 -7.705303 -6.857144 0.840610 1.912501 -14.618884 -3.462262 -0.188922 5.320369 
-3.558331 49.592079 1.187361 0.535467 1.171684 -1.035339 0.000000 0.000000 0.000000 -0.620044 2.421870 0.117495 -11.775665 1.093749 0.088061 9.151766 5.319726 -1.774449 -0.558580 9.716137 0.069024 -9.215289 4.823280 -8.522965 -0.069840 -3.705555 11.096765 0.964415 -5.675479 -3.448420 2.640140 -7.443110 0.177912 3.271234 -10.893385 2.456318 0.097158 4.843406 -0.225456 0.810859 5.848421 -3.307532 6.440732 11.010365 7.824425 -1.677193 -1.040528 -3.225251 -1.999175 0.183140 -11.718678 4.303818 -7.780042 -7.013698 0.713895 2.237695 -14.559793 -3.406430 -0.157339 4.582672 
-3.880713 49.628151 0.990115 0.992548 1.630696 -0.810774 0.000000 0.000000 0.000000 -0.964337 2.060545 0.068666 -11.795023 0.517575 0.205158 9.099171 5.690876 -1.697586 -0.102607 9.454192 -0.446316 -9.436207 4.996195 -8.631686 -0.073440 -3.410903 11.338049 0.832362 -5.605120 -3.435170 2.149747 -7.871675 -0.274679 3.942301 -11.723433 2.803601 0.073955 4.921563 -1.431416 1.102988 6.051183 -3.283649 5.573660 10.670427 7.164330 -1.625472 -0.688764 -2.222728 -1.399680 0.104694 -12.167107 3.846216 -8.055496 -7.179626 0.402420 2.589079 -14.386271 -3.247847 -0.157175 4.517193 
-4.166920 49.754444 0.795769 1.476309 2.431575 -0.419958 0.000000 0.000000 0.000000 -1.285924 1.416012 0.127156 -11.907352 0.664055 -0.263654 9.147666 4.802941 -1.548179 -0.268446 9.262960 -0.881371 -9.954003 5.324389 -8.328360 -0.075672 -3.347320 11.004902 1.200322 -5.690780 -3.462294 1.580842 -8.448634 -0.739961 4.918010 -12.606660 3.616288 0.064201 4.991967 -2.421653 1.094556 6.197380 -3.279917 4.442362 9.676492 6.236989 -1.451125 -0.378173 -0.568526 0.372704 -0.070983 -12.256898 3.534385 -8.525717 -7.383149 -0.316639 2.783850 -14.541677 -2.841379 -0.109320 3.761553 
-4.343930 49.818954 0.625648 1.586270 3.105466 0.078539 0.000000 0.000000 0.000000 -1.291421 1.064451 -0.126931 -11.709644 0.175780 -0.214843 9.093550 4.851904 -1.479236 -0.252317 8.646829 -0.791445 -10.096522 5.343368 -8.524343 -0.082234 -3.195694 10.699909 0.974633 -5.860846 -3.441718 1.231437 -8.803021 -0.630934 5.317635 -13.271265 3.976202 0.063623 5.085065 -3.804433 1.226013 6.478631 -3.258577 3.415591 8.501671 5.463919 -0.622501 -0.280750 1.887396 1.050912 -0.123905 -11.863998 3.444651 -8.931653 -7.481857 -0.720158 2.690803 -15.131962 -2.466484 -0.121956 3.615209 
-4.454106 49.819439 0.434464 1.552505 3.105454 0.176052 0.000000 0.000000 0.000000 -1.195834 1.298821 -0.195262 -11.165903 0.517564 -0.419905 8.496242 4.325075 -1.292019 -0.113231 8.536629 -0.553861 -10.558994 5.167323 -8.490548 -0.099396 -3.321465 10.163109 1.074650 -6.050505 -3.455162 1.048079 -8.727487 -0.364490 5.029354 -13.468311 4.496564 0.036245 5.339411 -5.012158 1.684318 6.690773 -3.219378 2.525686 7.980392 5.294342 0.552079 -0.483182 3.542331 0.676579 -0.037127 -11.191304 3.250118 -8.815085 -7.310382 -0.700500 2.671117 -15.403772 -2.310397 -0.085430 3.607139 
-4.487621 49.795235 0.319655 1.299415 2.832016 -0.185320 0.000000 0.000000 0.000000 -1.041184 1.767568 -0.195220 -10.503734 1.191393 -0.273378 8.043583 3.886060 -1.056895 0.004671 8.984421 -0.218308 -11.701114 5.295768 -8.500519 -0.100114 -3.231379 10.084015 1.128197 -6.301764 -3.453985 1.261251 -8.652128 0.011121 4.541520 -13.533452 5.230963 -0.010023 5.600965 -5.308419 2.097687 6.675030 -3.182892 2.909287 7.860895 5.500551 -0.049817 -0.934068 2.432701 0.014623 -0.013412 -10.278520 3.309908 -8.662446 -7.335531 -0.736504 2.883340 -15.273510 -2.109796 -0.079990 3.701695 
-4.417243 49.736713 0.306465 0.846455 2.509663 -0.517937 0.000000 0.000000 0.000000 -0.861050 2.236299 -0.293127 -9.488626 2.021475 -0.175672 7.628734 3.310337 -0.645148 -0.026654 9.121055 0.167013 -12.267104 5.637216 -8.390302 -0.097630 -3.162522 10.171772 0.940876 -6.459708 -3.435052 1.260241 -8.389838 0.405988 3.681357 -13.155675 5.718351 -0.024794 5.928285 -5.537763 2.072100 6.624341 -3.177565 3.680280 7.655174 5.509887 -0.938145 -1.111572 1.071449 -1.277717 0.111143 -9.372919 3.668163 -8.664735 -7.635467 -0.643013 3.189359 -15.038525 -2.079420 -0.106652 4.132350 
